<svg width="20" height="24" viewBox="0 0 20 24" fill="none" xmlns="http://www.w3.org/2000/svg">
<path d="M2.35294 24C1.70588 24 1.15177 23.7652 0.69059 23.2956C0.229414 22.826 -0.000782316 22.2608 1.9974e-06 21.6V4.8H2.35294V21.6H15.2941V24H2.35294ZM7.05882 19.2C6.41177 19.2 5.85765 18.9652 5.39647 18.4956C4.93529 18.026 4.7051 17.4608 4.70588 16.8V2.4C4.70588 1.74 4.93647 1.1748 5.39765 0.704402C5.85882 0.234002 6.41255 -0.000797963 7.05882 2.03735e-06H17.6471C18.2941 2.03735e-06 18.8482 0.235202 19.3094 0.705602C19.7706 1.176 20.0008 1.7408 20 2.4V16.8C20 17.46 19.7694 18.0252 19.3082 18.4956C18.8471 18.966 18.2933 19.2008 17.6471 19.2H7.05882ZM7.05882 16.8H17.6471V2.4H7.05882V16.8Z" fill="white"/>
</svg>
