<svg width="24" height="24" viewBox="0 0 24 24" fill="none" xmlns="http://www.w3.org/2000/svg">
<path d="M0 10.6667V0H10.6667V10.6667H0ZM2.66667 8H8V2.66667H2.66667V8ZM0 24V13.3333H10.6667V24H0ZM2.66667 21.3333H8V16H2.66667V21.3333ZM13.3333 10.6667V0H24V10.6667H13.3333ZM16 8H21.3333V2.66667H16V8ZM21.3333 24V21.3333H24V24H21.3333ZM13.3333 16V13.3333H16V16H13.3333ZM16 18.6667V16H18.6667V18.6667H16ZM13.3333 21.3333V18.6667H16V21.3333H13.3333ZM16 24V21.3333H18.6667V24H16ZM18.6667 21.3333V18.6667H21.3333V21.3333H18.6667ZM18.6667 16V13.3333H21.3333V16H18.6667ZM21.3333 18.6667V16H24V18.6667H21.3333Z" fill="white"/>
</svg>
