<svg width="16" height="16" viewBox="0 0 16 16" fill="none" xmlns="http://www.w3.org/2000/svg">
<path d="M11.4351 10.2299H10.7124L10.4563 9.99761C11.3838 8.98568 11.8935 7.69378 11.8925 6.35768C11.8925 5.25144 11.5438 4.17003 10.8904 3.25022C10.237 2.33042 9.30833 1.61351 8.22179 1.19017C7.13525 0.766828 5.93966 0.656062 4.7862 0.87188C3.63274 1.0877 2.57322 1.62041 1.74162 2.40264C0.910021 3.18487 0.343696 4.1815 0.114258 5.26649C-0.115179 6.35148 0.00257644 7.4761 0.452634 8.49813C0.902692 9.52017 1.66484 10.3937 2.64269 11.0083C3.62055 11.6229 4.7702 11.951 5.94626 11.951C7.4191 11.951 8.77301 11.4433 9.8159 10.6L10.0629 10.8409V11.5207L14.6369 15.8146L16 14.5325L11.4351 10.2299ZM5.94626 10.2299C3.66838 10.2299 1.82962 8.50034 1.82962 6.35768C1.82962 4.21503 3.66838 2.48541 5.94626 2.48541C8.22413 2.48541 10.0629 4.21503 10.0629 6.35768C10.0629 8.50034 8.22413 10.2299 5.94626 10.2299Z" fill="black"/>
</svg>
