<svg width="33" height="29" viewBox="0 0 33 29" fill="none" xmlns="http://www.w3.org/2000/svg">
<path d="M21.5769 17.0217C21.5769 16.523 21.7258 16.0354 22.0047 15.6207C22.2837 15.206 22.6801 14.8828 23.144 14.692C23.6078 14.5011 24.1182 14.4512 24.6106 14.5485C25.103 14.6458 25.5553 14.8859 25.9104 15.2386C26.2654 15.5913 26.5071 16.0406 26.6051 16.5298C26.703 17.0189 26.6528 17.526 26.4606 17.9868C26.2685 18.4476 25.9431 18.8414 25.5257 19.1185C25.1082 19.3956 24.6175 19.5435 24.1154 19.5435C23.4422 19.5435 22.7965 19.2778 22.3204 18.8049C21.8444 18.332 21.5769 17.6905 21.5769 17.0217ZM33 9.45652V25.8478C32.9958 26.6826 32.6602 27.4819 32.066 28.0722C31.4719 28.6624 30.6672 28.9959 29.8269 29H4.44233C3.26544 28.9958 2.13795 28.5296 1.30576 27.7029C0.473575 26.8762 0.0042056 25.7561 2.47915e-05 24.587V5.075C-0.00206193 4.41061 0.127602 3.75232 0.381612 3.13771C0.635622 2.5231 1.009 1.96421 1.48044 1.49295C1.95188 1.0217 2.51213 0.647298 3.12922 0.391136C3.74631 0.134975 4.40815 0.00206653 5.07694 0H26.0192C26.5242 0 27.0084 0.199262 27.3655 0.55395C27.7225 0.908638 27.9231 1.3897 27.9231 1.8913C27.9231 2.39291 27.7225 2.87397 27.3655 3.22866C27.0084 3.58335 26.5242 3.78261 26.0192 3.78261H5.07694C4.73253 3.78583 4.40276 3.92139 4.15675 4.16087C3.93204 4.40051 3.80728 4.71597 3.80771 5.04348V5.075C3.83199 5.41222 3.98521 5.72744 4.23596 5.95602C4.48671 6.18461 4.81598 6.30923 5.15627 6.30435H29.8269C30.6672 6.30849 31.4719 6.64192 32.066 7.23218C32.6602 7.82243 32.9958 8.62179 33 9.45652ZM29.1923 10.087H5.15627C4.70113 10.0868 4.24791 10.0285 3.80771 9.91359V24.587C3.80771 24.7542 3.87458 24.9145 3.99359 25.0327C4.1126 25.151 4.27402 25.2174 4.44233 25.2174H29.1923V10.087Z" fill="white"/>
</svg>
